<?xml version="1.0" encoding="utf-8"?>
<svg xmlns="http://www.w3.org/2000/svg" xmlns:xlink="http://www.w3.org/1999/xlink" width="528" height="336" viewBox="0 0 2112 1344">
<defs>
  <clipPath id="clip640">
    <rect x="0" y="0" width="2112" height="1344"/>
  </clipPath>
</defs>
<path clip-path="url(#clip640)" d="M0 1344 L2112 1344 L2112 2.13163e-14 L0 2.13163e-14  Z" fill="#ffffff" fill-rule="evenodd" fill-opacity="1"/>
<defs>
  <clipPath id="clip641">
    <rect x="422" y="0" width="1479" height="1344"/>
  </clipPath>
</defs>
<path clip-path="url(#clip640)" d="M138.973 1234.58 L2064.76 1234.58 L2064.76 47.2441 L138.973 47.2441  Z" fill="#ffffff" fill-rule="evenodd" fill-opacity="1"/>
<defs>
  <clipPath id="clip642">
    <rect x="138" y="47" width="1927" height="1188"/>
  </clipPath>
</defs>
<polyline clip-path="url(#clip642)" style="stroke:#000000; stroke-linecap:round; stroke-linejoin:round; stroke-width:2; stroke-opacity:0.1; fill:none" points="152.186,1234.58 152.186,47.2441 "/>
<polyline clip-path="url(#clip642)" style="stroke:#000000; stroke-linecap:round; stroke-linejoin:round; stroke-width:2; stroke-opacity:0.1; fill:none" points="565.09,1234.58 565.09,47.2441 "/>
<polyline clip-path="url(#clip642)" style="stroke:#000000; stroke-linecap:round; stroke-linejoin:round; stroke-width:2; stroke-opacity:0.1; fill:none" points="977.993,1234.58 977.993,47.2441 "/>
<polyline clip-path="url(#clip642)" style="stroke:#000000; stroke-linecap:round; stroke-linejoin:round; stroke-width:2; stroke-opacity:0.1; fill:none" points="1390.9,1234.58 1390.9,47.2441 "/>
<polyline clip-path="url(#clip642)" style="stroke:#000000; stroke-linecap:round; stroke-linejoin:round; stroke-width:2; stroke-opacity:0.1; fill:none" points="1803.8,1234.58 1803.8,47.2441 "/>
<polyline clip-path="url(#clip642)" style="stroke:#000000; stroke-linecap:round; stroke-linejoin:round; stroke-width:2; stroke-opacity:0.1; fill:none" points="138.973,1200.97 2064.76,1200.97 "/>
<polyline clip-path="url(#clip642)" style="stroke:#000000; stroke-linecap:round; stroke-linejoin:round; stroke-width:2; stroke-opacity:0.1; fill:none" points="138.973,927.166 2064.76,927.166 "/>
<polyline clip-path="url(#clip642)" style="stroke:#000000; stroke-linecap:round; stroke-linejoin:round; stroke-width:2; stroke-opacity:0.1; fill:none" points="138.973,653.357 2064.76,653.357 "/>
<polyline clip-path="url(#clip642)" style="stroke:#000000; stroke-linecap:round; stroke-linejoin:round; stroke-width:2; stroke-opacity:0.1; fill:none" points="138.973,379.548 2064.76,379.548 "/>
<polyline clip-path="url(#clip642)" style="stroke:#000000; stroke-linecap:round; stroke-linejoin:round; stroke-width:2; stroke-opacity:0.1; fill:none" points="138.973,105.74 2064.76,105.74 "/>
<polyline clip-path="url(#clip640)" style="stroke:#000000; stroke-linecap:round; stroke-linejoin:round; stroke-width:4; stroke-opacity:1; fill:none" points="138.973,1234.58 2064.76,1234.58 "/>
<polyline clip-path="url(#clip640)" style="stroke:#000000; stroke-linecap:round; stroke-linejoin:round; stroke-width:4; stroke-opacity:1; fill:none" points="152.186,1234.58 152.186,1215.68 "/>
<polyline clip-path="url(#clip640)" style="stroke:#000000; stroke-linecap:round; stroke-linejoin:round; stroke-width:4; stroke-opacity:1; fill:none" points="565.09,1234.58 565.09,1215.68 "/>
<polyline clip-path="url(#clip640)" style="stroke:#000000; stroke-linecap:round; stroke-linejoin:round; stroke-width:4; stroke-opacity:1; fill:none" points="977.993,1234.58 977.993,1215.68 "/>
<polyline clip-path="url(#clip640)" style="stroke:#000000; stroke-linecap:round; stroke-linejoin:round; stroke-width:4; stroke-opacity:1; fill:none" points="1390.9,1234.58 1390.9,1215.68 "/>
<polyline clip-path="url(#clip640)" style="stroke:#000000; stroke-linecap:round; stroke-linejoin:round; stroke-width:4; stroke-opacity:1; fill:none" points="1803.8,1234.58 1803.8,1215.68 "/>
<path clip-path="url(#clip640)" d="M152.186 1263.19 Q148.575 1263.19 146.746 1266.76 Q144.941 1270.3 144.941 1277.43 Q144.941 1284.54 146.746 1288.1 Q148.575 1291.64 152.186 1291.64 Q155.82 1291.64 157.626 1288.1 Q159.454 1284.54 159.454 1277.43 Q159.454 1270.3 157.626 1266.76 Q155.82 1263.19 152.186 1263.19 M152.186 1259.49 Q157.996 1259.49 161.052 1264.1 Q164.13 1268.68 164.13 1277.43 Q164.13 1286.16 161.052 1290.76 Q157.996 1295.35 152.186 1295.35 Q146.376 1295.35 143.297 1290.76 Q140.241 1286.16 140.241 1277.43 Q140.241 1268.68 143.297 1264.1 Q146.376 1259.49 152.186 1259.49 Z" fill="#000000" fill-rule="nonzero" fill-opacity="1" /><path clip-path="url(#clip640)" d="M539.777 1290.74 L547.416 1290.74 L547.416 1264.37 L539.106 1266.04 L539.106 1261.78 L547.37 1260.11 L552.046 1260.11 L552.046 1290.74 L559.685 1290.74 L559.685 1294.67 L539.777 1294.67 L539.777 1290.74 Z" fill="#000000" fill-rule="nonzero" fill-opacity="1" /><path clip-path="url(#clip640)" d="M579.129 1263.19 Q575.518 1263.19 573.689 1266.76 Q571.884 1270.3 571.884 1277.43 Q571.884 1284.54 573.689 1288.1 Q575.518 1291.64 579.129 1291.64 Q582.763 1291.64 584.569 1288.1 Q586.397 1284.54 586.397 1277.43 Q586.397 1270.3 584.569 1266.76 Q582.763 1263.19 579.129 1263.19 M579.129 1259.49 Q584.939 1259.49 587.995 1264.1 Q591.073 1268.68 591.073 1277.43 Q591.073 1286.16 587.995 1290.76 Q584.939 1295.35 579.129 1295.35 Q573.319 1295.35 570.24 1290.76 Q567.184 1286.16 567.184 1277.43 Q567.184 1268.68 570.24 1264.1 Q573.319 1259.49 579.129 1259.49 Z" fill="#000000" fill-rule="nonzero" fill-opacity="1" /><path clip-path="url(#clip640)" d="M956.767 1290.74 L973.086 1290.74 L973.086 1294.67 L951.142 1294.67 L951.142 1290.74 Q953.804 1287.99 958.387 1283.36 Q962.993 1278.7 964.174 1277.36 Q966.419 1274.84 967.299 1273.1 Q968.202 1271.34 968.202 1269.65 Q968.202 1266.9 966.257 1265.16 Q964.336 1263.42 961.234 1263.42 Q959.035 1263.42 956.581 1264.19 Q954.151 1264.95 951.373 1266.5 L951.373 1261.78 Q954.197 1260.65 956.651 1260.07 Q959.105 1259.49 961.142 1259.49 Q966.512 1259.49 969.706 1262.17 Q972.901 1264.86 972.901 1269.35 Q972.901 1271.48 972.091 1273.4 Q971.304 1275.3 969.197 1277.89 Q968.618 1278.56 965.517 1281.78 Q962.415 1284.98 956.767 1290.74 Z" fill="#000000" fill-rule="nonzero" fill-opacity="1" /><path clip-path="url(#clip640)" d="M992.901 1263.19 Q989.29 1263.19 987.461 1266.76 Q985.655 1270.3 985.655 1277.43 Q985.655 1284.54 987.461 1288.1 Q989.29 1291.64 992.901 1291.64 Q996.535 1291.64 998.34 1288.1 Q1000.17 1284.54 1000.17 1277.43 Q1000.17 1270.3 998.34 1266.76 Q996.535 1263.19 992.901 1263.19 M992.901 1259.49 Q998.711 1259.49 1001.77 1264.1 Q1004.85 1268.68 1004.85 1277.43 Q1004.85 1286.16 1001.77 1290.76 Q998.711 1295.35 992.901 1295.35 Q987.09 1295.35 984.012 1290.76 Q980.956 1286.16 980.956 1277.43 Q980.956 1268.68 984.012 1264.1 Q987.09 1259.49 992.901 1259.49 Z" fill="#000000" fill-rule="nonzero" fill-opacity="1" /><path clip-path="url(#clip640)" d="M1379.74 1276.04 Q1383.1 1276.76 1384.97 1279.03 Q1386.87 1281.3 1386.87 1284.63 Q1386.87 1289.74 1383.35 1292.55 Q1379.83 1295.35 1373.35 1295.35 Q1371.17 1295.35 1368.86 1294.91 Q1366.57 1294.49 1364.11 1293.63 L1364.11 1289.12 Q1366.06 1290.25 1368.37 1290.83 Q1370.69 1291.41 1373.21 1291.41 Q1377.61 1291.41 1379.9 1289.67 Q1382.22 1287.94 1382.22 1284.63 Q1382.22 1281.57 1380.06 1279.86 Q1377.93 1278.12 1374.11 1278.12 L1370.09 1278.12 L1370.09 1274.28 L1374.3 1274.28 Q1377.75 1274.28 1379.58 1272.92 Q1381.41 1271.53 1381.41 1268.93 Q1381.41 1266.27 1379.51 1264.86 Q1377.63 1263.42 1374.11 1263.42 Q1372.19 1263.42 1369.99 1263.84 Q1367.8 1264.26 1365.16 1265.14 L1365.16 1260.97 Q1367.82 1260.23 1370.13 1259.86 Q1372.47 1259.49 1374.53 1259.49 Q1379.86 1259.49 1382.96 1261.92 Q1386.06 1264.33 1386.06 1268.45 Q1386.06 1271.32 1384.42 1273.31 Q1382.77 1275.28 1379.74 1276.04 Z" fill="#000000" fill-rule="nonzero" fill-opacity="1" /><path clip-path="url(#clip640)" d="M1405.73 1263.19 Q1402.12 1263.19 1400.3 1266.76 Q1398.49 1270.3 1398.49 1277.43 Q1398.49 1284.54 1400.3 1288.1 Q1402.12 1291.64 1405.73 1291.64 Q1409.37 1291.64 1411.17 1288.1 Q1413 1284.54 1413 1277.43 Q1413 1270.3 1411.17 1266.76 Q1409.37 1263.19 1405.73 1263.19 M1405.73 1259.49 Q1411.55 1259.49 1414.6 1264.1 Q1417.68 1268.68 1417.68 1277.43 Q1417.68 1286.16 1414.6 1290.76 Q1411.55 1295.35 1405.73 1295.35 Q1399.92 1295.35 1396.85 1290.76 Q1393.79 1286.16 1393.79 1277.43 Q1393.79 1268.68 1396.85 1264.1 Q1399.92 1259.49 1405.73 1259.49 Z" fill="#000000" fill-rule="nonzero" fill-opacity="1" /><path clip-path="url(#clip640)" d="M1791.97 1264.19 L1780.17 1282.64 L1791.97 1282.64 L1791.97 1264.19 M1790.75 1260.11 L1796.62 1260.11 L1796.62 1282.64 L1801.56 1282.64 L1801.56 1286.53 L1796.62 1286.53 L1796.62 1294.67 L1791.97 1294.67 L1791.97 1286.53 L1776.37 1286.53 L1776.37 1282.01 L1790.75 1260.11 Z" fill="#000000" fill-rule="nonzero" fill-opacity="1" /><path clip-path="url(#clip640)" d="M1819.29 1263.19 Q1815.68 1263.19 1813.85 1266.76 Q1812.04 1270.3 1812.04 1277.43 Q1812.04 1284.54 1813.85 1288.1 Q1815.68 1291.64 1819.29 1291.64 Q1822.92 1291.64 1824.73 1288.1 Q1826.56 1284.54 1826.56 1277.43 Q1826.56 1270.3 1824.73 1266.76 Q1822.92 1263.19 1819.29 1263.19 M1819.29 1259.49 Q1825.1 1259.49 1828.15 1264.1 Q1831.23 1268.68 1831.23 1277.43 Q1831.23 1286.16 1828.15 1290.76 Q1825.1 1295.35 1819.29 1295.35 Q1813.48 1295.35 1810.4 1290.76 Q1807.34 1286.16 1807.34 1277.43 Q1807.34 1268.68 1810.4 1264.1 Q1813.48 1259.49 1819.29 1259.49 Z" fill="#000000" fill-rule="nonzero" fill-opacity="1" /><polyline clip-path="url(#clip640)" style="stroke:#000000; stroke-linecap:round; stroke-linejoin:round; stroke-width:4; stroke-opacity:1; fill:none" points="138.973,1234.58 138.973,47.2441 "/>
<polyline clip-path="url(#clip640)" style="stroke:#000000; stroke-linecap:round; stroke-linejoin:round; stroke-width:4; stroke-opacity:1; fill:none" points="138.973,1200.97 157.871,1200.97 "/>
<polyline clip-path="url(#clip640)" style="stroke:#000000; stroke-linecap:round; stroke-linejoin:round; stroke-width:4; stroke-opacity:1; fill:none" points="138.973,927.166 157.871,927.166 "/>
<polyline clip-path="url(#clip640)" style="stroke:#000000; stroke-linecap:round; stroke-linejoin:round; stroke-width:4; stroke-opacity:1; fill:none" points="138.973,653.357 157.871,653.357 "/>
<polyline clip-path="url(#clip640)" style="stroke:#000000; stroke-linecap:round; stroke-linejoin:round; stroke-width:4; stroke-opacity:1; fill:none" points="138.973,379.548 157.871,379.548 "/>
<polyline clip-path="url(#clip640)" style="stroke:#000000; stroke-linecap:round; stroke-linejoin:round; stroke-width:4; stroke-opacity:1; fill:none" points="138.973,105.74 157.871,105.74 "/>
<path clip-path="url(#clip640)" d="M95.3486 1186.77 Q91.7375 1186.77 89.9088 1190.34 Q88.1032 1193.88 88.1032 1201.01 Q88.1032 1208.12 89.9088 1211.68 Q91.7375 1215.22 95.3486 1215.22 Q98.9828 1215.22 100.788 1211.68 Q102.617 1208.12 102.617 1201.01 Q102.617 1193.88 100.788 1190.34 Q98.9828 1186.77 95.3486 1186.77 M95.3486 1183.07 Q101.159 1183.07 104.214 1187.68 Q107.293 1192.26 107.293 1201.01 Q107.293 1209.74 104.214 1214.34 Q101.159 1218.93 95.3486 1218.93 Q89.5384 1218.93 86.4597 1214.34 Q83.4042 1209.74 83.4042 1201.01 Q83.4042 1192.26 86.4597 1187.68 Q89.5384 1183.07 95.3486 1183.07 Z" fill="#000000" fill-rule="nonzero" fill-opacity="1" /><path clip-path="url(#clip640)" d="M59.2145 940.511 L75.5339 940.511 L75.5339 944.446 L53.5895 944.446 L53.5895 940.511 Q56.2515 937.756 60.8349 933.127 Q65.4413 928.474 66.6219 927.131 Q68.8672 924.608 69.7468 922.872 Q70.6496 921.113 70.6496 919.423 Q70.6496 916.669 68.7052 914.932 Q66.7839 913.196 63.6821 913.196 Q61.483 913.196 59.0293 913.96 Q56.5988 914.724 53.821 916.275 L53.821 911.553 Q56.6451 910.419 59.0988 909.84 Q61.5524 909.261 63.5895 909.261 Q68.9598 909.261 72.1542 911.946 Q75.3487 914.631 75.3487 919.122 Q75.3487 921.252 74.5385 923.173 Q73.7515 925.071 71.645 927.664 Q71.0663 928.335 67.9645 931.553 Q64.8626 934.747 59.2145 940.511 Z" fill="#000000" fill-rule="nonzero" fill-opacity="1" /><path clip-path="url(#clip640)" d="M95.3486 912.965 Q91.7375 912.965 89.9088 916.53 Q88.1032 920.071 88.1032 927.201 Q88.1032 934.307 89.9088 937.872 Q91.7375 941.414 95.3486 941.414 Q98.9828 941.414 100.788 937.872 Q102.617 934.307 102.617 927.201 Q102.617 920.071 100.788 916.53 Q98.9828 912.965 95.3486 912.965 M95.3486 909.261 Q101.159 909.261 104.214 913.868 Q107.293 918.451 107.293 927.201 Q107.293 935.928 104.214 940.534 Q101.159 945.117 95.3486 945.117 Q89.5384 945.117 86.4597 940.534 Q83.4042 935.928 83.4042 927.201 Q83.4042 918.451 86.4597 913.868 Q89.5384 909.261 95.3486 909.261 Z" fill="#000000" fill-rule="nonzero" fill-opacity="1" /><path clip-path="url(#clip640)" d="M68.0339 640.151 L56.2284 658.6 L68.0339 658.6 L68.0339 640.151 M66.807 636.077 L72.6866 636.077 L72.6866 658.6 L77.6172 658.6 L77.6172 662.489 L72.6866 662.489 L72.6866 670.637 L68.0339 670.637 L68.0339 662.489 L52.4321 662.489 L52.4321 657.975 L66.807 636.077 Z" fill="#000000" fill-rule="nonzero" fill-opacity="1" /><path clip-path="url(#clip640)" d="M95.3486 639.156 Q91.7375 639.156 89.9088 642.721 Q88.1032 646.262 88.1032 653.392 Q88.1032 660.498 89.9088 664.063 Q91.7375 667.605 95.3486 667.605 Q98.9828 667.605 100.788 664.063 Q102.617 660.498 102.617 653.392 Q102.617 646.262 100.788 642.721 Q98.9828 639.156 95.3486 639.156 M95.3486 635.452 Q101.159 635.452 104.214 640.059 Q107.293 644.642 107.293 653.392 Q107.293 662.119 104.214 666.725 Q101.159 671.309 95.3486 671.309 Q89.5384 671.309 86.4597 666.725 Q83.4042 662.119 83.4042 653.392 Q83.4042 644.642 86.4597 640.059 Q89.5384 635.452 95.3486 635.452 Z" fill="#000000" fill-rule="nonzero" fill-opacity="1" /><path clip-path="url(#clip640)" d="M65.7654 377.685 Q62.6173 377.685 60.7654 379.838 Q58.9367 381.991 58.9367 385.741 Q58.9367 389.467 60.7654 391.643 Q62.6173 393.796 65.7654 393.796 Q68.9135 393.796 70.7422 391.643 Q72.5941 389.467 72.5941 385.741 Q72.5941 381.991 70.7422 379.838 Q68.9135 377.685 65.7654 377.685 M75.0477 363.032 L75.0477 367.292 Q73.2885 366.458 71.4829 366.018 Q69.7006 365.579 67.9413 365.579 Q63.3117 365.579 60.858 368.704 Q58.4275 371.829 58.0802 378.148 Q59.446 376.134 61.5062 375.069 Q63.5663 373.981 66.0432 373.981 Q71.2515 373.981 74.2607 377.153 Q77.2931 380.301 77.2931 385.741 Q77.2931 391.065 74.145 394.282 Q70.9968 397.5 65.7654 397.5 Q59.77 397.5 56.5988 392.916 Q53.4275 388.31 53.4275 379.583 Q53.4275 371.389 57.3164 366.528 Q61.2052 361.643 67.7561 361.643 Q69.5154 361.643 71.2978 361.991 Q73.1033 362.338 75.0477 363.032 Z" fill="#000000" fill-rule="nonzero" fill-opacity="1" /><path clip-path="url(#clip640)" d="M95.3486 365.347 Q91.7375 365.347 89.9088 368.912 Q88.1032 372.454 88.1032 379.583 Q88.1032 386.69 89.9088 390.254 Q91.7375 393.796 95.3486 393.796 Q98.9828 393.796 100.788 390.254 Q102.617 386.69 102.617 379.583 Q102.617 372.454 100.788 368.912 Q98.9828 365.347 95.3486 365.347 M95.3486 361.643 Q101.159 361.643 104.214 366.25 Q107.293 370.833 107.293 379.583 Q107.293 388.31 104.214 392.916 Q101.159 397.5 95.3486 397.5 Q89.5384 397.5 86.4597 392.916 Q83.4042 388.31 83.4042 379.583 Q83.4042 370.833 86.4597 366.25 Q89.5384 361.643 95.3486 361.643 Z" fill="#000000" fill-rule="nonzero" fill-opacity="1" /><path clip-path="url(#clip640)" d="M65.1867 106.608 Q61.8534 106.608 59.9321 108.39 Q58.0339 110.172 58.0339 113.297 Q58.0339 116.422 59.9321 118.205 Q61.8534 119.987 65.1867 119.987 Q68.52 119.987 70.4413 118.205 Q72.3626 116.399 72.3626 113.297 Q72.3626 110.172 70.4413 108.39 Q68.5432 106.608 65.1867 106.608 M60.5108 104.617 Q57.5015 103.876 55.8117 101.816 Q54.1451 99.7559 54.1451 96.7929 Q54.1451 92.6494 57.0849 90.242 Q60.0478 87.8346 65.1867 87.8346 Q70.3487 87.8346 73.2885 90.242 Q76.2283 92.6494 76.2283 96.7929 Q76.2283 99.7559 74.5385 101.816 Q72.8718 103.876 69.8857 104.617 Q73.2653 105.404 75.1403 107.696 Q77.0385 109.987 77.0385 113.297 Q77.0385 118.321 73.9598 121.006 Q70.9042 123.691 65.1867 123.691 Q59.4691 123.691 56.3904 121.006 Q53.3349 118.321 53.3349 113.297 Q53.3349 109.987 55.233 107.696 Q57.1312 105.404 60.5108 104.617 M58.7978 97.2327 Q58.7978 99.9179 60.4645 101.423 Q62.1543 102.927 65.1867 102.927 Q68.1959 102.927 69.8857 101.423 Q71.5987 99.9179 71.5987 97.2327 Q71.5987 94.5475 69.8857 93.0429 Q68.1959 91.5383 65.1867 91.5383 Q62.1543 91.5383 60.4645 93.0429 Q58.7978 94.5475 58.7978 97.2327 Z" fill="#000000" fill-rule="nonzero" fill-opacity="1" /><path clip-path="url(#clip640)" d="M95.3486 91.5383 Q91.7375 91.5383 89.9088 95.1031 Q88.1032 98.6447 88.1032 105.774 Q88.1032 112.881 89.9088 116.446 Q91.7375 119.987 95.3486 119.987 Q98.9828 119.987 100.788 116.446 Q102.617 112.881 102.617 105.774 Q102.617 98.6447 100.788 95.1031 Q98.9828 91.5383 95.3486 91.5383 M95.3486 87.8346 Q101.159 87.8346 104.214 92.4411 Q107.293 97.0244 107.293 105.774 Q107.293 114.501 104.214 119.108 Q101.159 123.691 95.3486 123.691 Q89.5384 123.691 86.4597 119.108 Q83.4042 114.501 83.4042 105.774 Q83.4042 97.0244 86.4597 92.4411 Q89.5384 87.8346 95.3486 87.8346 Z" fill="#000000" fill-rule="nonzero" fill-opacity="1" /><polyline clip-path="url(#clip642)" style="stroke:#009af9; stroke-linecap:round; stroke-linejoin:round; stroke-width:4; stroke-opacity:1; fill:none" points="193.476,1200.97 234.767,1200.97 276.057,1200.97 317.347,1200.97 358.638,1200.97 399.928,1200.97 441.218,1200.97 482.509,1200.97 523.799,1200.97 565.09,1200.97 606.38,1200.97 647.67,1200.97 688.961,1200.97 730.251,1200.97 771.541,1200.97 812.832,1200.97 854.122,1200.97 895.413,1200.97 936.703,1188.53 977.993,1188.53 1019.28,1188.53 1060.57,1188.53 1101.86,1188.53 1143.15,1188.53 1184.45,1188.53 1225.74,1188.53 1267.03,1188.53 1308.32,1188.53 1349.61,1188.53 1390.9,1188.53 1432.19,1188.53 1473.48,1188.53 1514.77,1188.53 1556.06,1188.53 1597.35,1188.53 1638.64,1188.53 1679.93,1188.53 1721.22,1176.08 1762.51,1176.08 1803.8,1176.08 1845.09,1176.08 1886.38,1163.64 1927.67,1163.64 1968.96,1151.19 2010.25,1126.3 "/>
<polyline clip-path="url(#clip642)" style="stroke:#e26f46; stroke-linecap:round; stroke-linejoin:round; stroke-width:4; stroke-opacity:1; fill:none" points="193.476,1076.52 234.767,1076.52 276.057,1076.52 317.347,1076.52 358.638,1076.52 399.928,1076.52 441.218,1076.52 482.509,1076.52 523.799,1076.52 565.09,1076.52 606.38,1076.52 647.67,1076.52 688.961,1076.52 730.251,1076.52 771.541,1076.52 812.832,1076.52 854.122,1076.52 895.413,1076.52 936.703,1076.52 977.993,1076.52 1019.28,1076.52 1060.57,1076.52 1101.86,1076.52 1143.15,1076.52 1184.45,1076.52 1225.74,1076.52 1267.03,1076.52 1308.32,1076.52 1349.61,1076.52 1390.9,1076.52 1432.19,1076.52 1473.48,1064.07 1514.77,1064.07 1556.06,1064.07 1597.35,1064.07 1638.64,1064.07 1679.93,1064.07 1721.22,1064.07 1762.51,1064.07 1803.8,1064.07 1845.09,1064.07 1886.38,1064.07 1927.67,1051.62 1968.96,1051.62 2010.25,1039.18 "/>
<polyline clip-path="url(#clip642)" style="stroke:#3da44d; stroke-linecap:round; stroke-linejoin:round; stroke-width:4; stroke-opacity:1; fill:none" points="193.476,952.058 234.767,952.058 276.057,952.058 317.347,952.058 358.638,952.058 399.928,952.058 441.218,952.058 482.509,952.058 523.799,952.058 565.09,952.058 606.38,952.058 647.67,952.058 688.961,952.058 730.251,952.058 771.541,952.058 812.832,952.058 854.122,952.058 895.413,952.058 936.703,952.058 977.993,952.058 1019.28,952.058 1060.57,952.058 1101.86,952.058 1143.15,952.058 1184.45,952.058 1225.74,952.058 1267.03,952.058 1308.32,952.058 1349.61,952.058 1390.9,952.058 1432.19,952.058 1473.48,952.058 1514.77,952.058 1556.06,952.058 1597.35,952.058 1638.64,952.058 1679.93,952.058 1721.22,952.058 1762.51,952.058 1803.8,952.058 1845.09,952.058 1886.38,952.058 1927.67,952.058 1968.96,952.058 2010.25,952.058 "/>
<polyline clip-path="url(#clip642)" style="stroke:#c271d2; stroke-linecap:round; stroke-linejoin:round; stroke-width:4; stroke-opacity:1; fill:none" points="193.476,827.599 234.767,827.599 276.057,827.599 317.347,827.599 358.638,827.599 399.928,827.599 441.218,827.599 482.509,827.599 523.799,827.599 565.09,827.599 606.38,827.599 647.67,827.599 688.961,827.599 730.251,827.599 771.541,827.599 812.832,827.599 854.122,827.599 895.413,827.599 936.703,827.599 977.993,827.599 1019.28,827.599 1060.57,827.599 1101.86,827.599 1143.15,827.599 1184.45,827.599 1225.74,827.599 1267.03,827.599 1308.32,827.599 1349.61,827.599 1390.9,827.599 1432.19,827.599 1473.48,827.599 1514.77,827.599 1556.06,827.599 1597.35,827.599 1638.64,827.599 1679.93,827.599 1721.22,840.045 1762.51,840.045 1803.8,840.045 1845.09,840.045 1886.38,840.045 1927.67,852.491 1968.96,852.491 2010.25,864.937 "/>
<polyline clip-path="url(#clip642)" style="stroke:#ac8d18; stroke-linecap:round; stroke-linejoin:round; stroke-width:4; stroke-opacity:1; fill:none" points="193.476,703.141 234.767,703.141 276.057,703.141 317.347,703.141 358.638,703.141 399.928,703.141 441.218,703.141 482.509,703.141 523.799,703.141 565.09,703.141 606.38,703.141 647.67,703.141 688.961,703.141 730.251,703.141 771.541,703.141 812.832,703.141 854.122,703.141 895.413,703.141 936.703,703.141 977.993,703.141 1019.28,703.141 1060.57,703.141 1101.86,703.141 1143.15,703.141 1184.45,703.141 1225.74,703.141 1267.03,703.141 1308.32,703.141 1349.61,715.587 1390.9,715.587 1432.19,715.587 1473.48,715.587 1514.77,715.587 1556.06,715.587 1597.35,715.587 1638.64,715.587 1679.93,715.587 1721.22,715.587 1762.51,728.032 1803.8,728.032 1845.09,728.032 1886.38,740.478 1927.67,740.478 1968.96,752.924 2010.25,777.816 "/>
<polyline clip-path="url(#clip642)" style="stroke:#00a9ad; stroke-linecap:round; stroke-linejoin:round; stroke-width:4; stroke-opacity:1; fill:none" points="193.476,578.682 234.767,578.682 276.057,578.682 317.347,578.682 358.638,578.682 399.928,578.682 441.218,578.682 482.509,578.682 523.799,578.682 565.09,578.682 606.38,578.682 647.67,578.682 688.961,578.682 730.251,578.682 771.541,578.682 812.832,578.682 854.122,578.682 895.413,578.682 936.703,578.682 977.993,578.682 1019.28,578.682 1060.57,578.682 1101.86,591.128 1143.15,591.128 1184.45,591.128 1225.74,591.128 1267.03,591.128 1308.32,591.128 1349.61,591.128 1390.9,591.128 1432.19,591.128 1473.48,591.128 1514.77,591.128 1556.06,591.128 1597.35,603.574 1638.64,603.574 1679.93,603.574 1721.22,603.574 1762.51,616.02 1803.8,616.02 1845.09,616.02 1886.38,628.466 1927.67,640.911 1968.96,653.357 2010.25,678.249 "/>
<polyline clip-path="url(#clip642)" style="stroke:#ed5d92; stroke-linecap:round; stroke-linejoin:round; stroke-width:4; stroke-opacity:1; fill:none" points="193.476,454.224 234.767,454.224 276.057,454.224 317.347,454.224 358.638,454.224 399.928,454.224 441.218,454.224 482.509,454.224 523.799,454.224 565.09,454.224 606.38,454.224 647.67,454.224 688.961,454.224 730.251,454.224 771.541,454.224 812.832,454.224 854.122,466.669 895.413,466.669 936.703,466.669 977.993,466.669 1019.28,466.669 1060.57,466.669 1101.86,466.669 1143.15,466.669 1184.45,466.669 1225.74,466.669 1267.03,466.669 1308.32,466.669 1349.61,466.669 1390.9,466.669 1432.19,466.669 1473.48,479.115 1514.77,479.115 1556.06,479.115 1597.35,479.115 1638.64,479.115 1679.93,491.561 1721.22,491.561 1762.51,491.561 1803.8,504.007 1845.09,516.453 1886.38,528.899 1927.67,541.345 1968.96,553.79 2010.25,591.128 "/>
<polyline clip-path="url(#clip642)" style="stroke:#c68125; stroke-linecap:round; stroke-linejoin:round; stroke-width:4; stroke-opacity:1; fill:none" points="193.476,329.765 234.767,329.765 276.057,329.765 317.347,329.765 358.638,329.765 399.928,329.765 441.218,329.765 482.509,329.765 523.799,329.765 565.09,329.765 606.38,329.765 647.67,342.211 688.961,342.211 730.251,342.211 771.541,342.211 812.832,342.211 854.122,342.211 895.413,342.211 936.703,342.211 977.993,342.211 1019.28,342.211 1060.57,342.211 1101.86,342.211 1143.15,342.211 1184.45,342.211 1225.74,342.211 1267.03,342.211 1308.32,342.211 1349.61,354.657 1390.9,354.657 1432.19,354.657 1473.48,354.657 1514.77,354.657 1556.06,354.657 1597.35,367.103 1638.64,367.103 1679.93,367.103 1721.22,379.548 1762.51,379.548 1803.8,391.994 1845.09,404.44 1886.38,416.886 1927.67,429.332 1968.96,466.669 2010.25,504.007 "/>
<polyline clip-path="url(#clip642)" style="stroke:#00a98d; stroke-linecap:round; stroke-linejoin:round; stroke-width:4; stroke-opacity:1; fill:none" points="193.476,205.306 234.767,205.306 276.057,205.306 317.347,205.306 358.638,205.306 399.928,205.306 441.218,217.752 482.509,217.752 523.799,217.752 565.09,217.752 606.38,217.752 647.67,217.752 688.961,217.752 730.251,217.752 771.541,217.752 812.832,217.752 854.122,217.752 895.413,217.752 936.703,217.752 977.993,217.752 1019.28,217.752 1060.57,217.752 1101.86,217.752 1143.15,217.752 1184.45,217.752 1225.74,230.198 1267.03,230.198 1308.32,230.198 1349.61,230.198 1390.9,230.198 1432.19,230.198 1473.48,242.644 1514.77,242.644 1556.06,242.644 1597.35,242.644 1638.64,255.09 1679.93,255.09 1721.22,267.536 1762.51,267.536 1803.8,279.982 1845.09,292.427 1886.38,304.873 1927.67,329.765 1968.96,367.103 2010.25,416.886 "/>
<polyline clip-path="url(#clip642)" style="stroke:#8e971d; stroke-linecap:round; stroke-linejoin:round; stroke-width:4; stroke-opacity:1; fill:none" points="193.476,80.8479 234.767,93.2938 276.057,93.2938 317.347,93.2938 358.638,93.2938 399.928,93.2938 441.218,93.2938 482.509,93.2938 523.799,93.2938 565.09,93.2938 606.38,93.2938 647.67,93.2938 688.961,93.2938 730.251,93.2938 771.541,93.2938 812.832,93.2938 854.122,93.2938 895.413,93.2938 936.703,93.2938 977.993,93.2938 1019.28,93.2938 1060.57,93.2938 1101.86,93.2938 1143.15,105.74 1184.45,105.74 1225.74,105.74 1267.03,105.74 1308.32,105.74 1349.61,105.74 1390.9,105.74 1432.19,118.185 1473.48,118.185 1514.77,118.185 1556.06,130.631 1597.35,130.631 1638.64,130.631 1679.93,143.077 1721.22,143.077 1762.51,155.523 1803.8,167.969 1845.09,180.415 1886.38,205.306 1927.67,230.198 1968.96,267.536 2010.25,329.765 "/>
</svg>
